<?xml version="1.0" encoding="UTF-8" standalone="no"?>
<!DOCTYPE svg PUBLIC "-//W3C//DTD SVG 1.1//EN" "http://www.w3.org/Graphics/SVG/1.1/DTD/svg11.dtd">
<svg width="100%" height="100%" viewBox="0 0 100 94" version="1.1" xmlns="http://www.w3.org/2000/svg" xmlns:xlink="http://www.w3.org/1999/xlink" xml:space="preserve" xmlns:serif="http://www.serif.com/" style="fill-rule:evenodd;clip-rule:evenodd;stroke-linejoin:round;stroke-miterlimit:2;">
    <g transform="matrix(0.183594,0,0,0.183594,3.0365,-0.000488125)">
        <path d="M346.656,334.738C335.52,331.027 325.809,327.793 319,325.523L319,302.398C348.676,285.383 370.891,256.777 379.43,222.801L400.398,222.801C413,222.801 424.836,217.895 433.727,208.992C442.629,200.094 447.531,188.258 447.531,175.664L447.531,143.531C447.531,130.941 442.629,119.105 433.734,110.215C424.836,101.305 412.996,96.398 400.398,96.398L383.266,96.398L383.266,95.316C383.266,42.758 340.508,0 287.949,0L223.648,0C171.094,0 128.332,42.758 128.332,95.316L128.332,96.398L111.199,96.398C98.602,96.398 86.762,101.305 77.875,110.207C68.969,119.109 64.066,130.941 64.066,143.535L64.066,239.934C64.066,283.641 99.625,319.199 143.336,319.199C151.617,319.199 158.336,312.484 158.336,304.199C158.336,295.918 151.617,289.199 143.336,289.199C116.168,289.199 94.066,267.102 94.066,239.934L94.066,219.59C99.457,221.691 105.238,222.801 111.199,222.801L132.121,222.801C137.645,244.969 149.09,265.301 165.664,281.871C173.809,290.016 182.867,296.918 192.602,302.492L192.602,325.523C185.793,327.793 176.078,331.031 164.941,334.742C94.996,358.059 48,423.262 48,497C48,505.285 54.715,512 63,512L448.602,512C456.883,512 463.602,505.277 463.602,496.992C463.602,423.262 416.605,358.059 346.656,334.738ZM412.516,131.422C415.75,134.656 417.531,138.957 417.531,143.531L417.531,175.664C417.531,180.242 415.75,184.543 412.508,187.785C409.277,191.02 404.977,192.801 400.398,192.801L383.266,192.801L383.266,126.398L400.398,126.398C404.977,126.398 409.277,128.18 412.516,131.422ZM223.652,30L287.949,30C323.965,30 353.266,59.301 353.266,95.316L353.266,128.531L289.902,128.531C257.828,128.531 229.992,106.82 222.176,75.723C220.551,69.043 214.555,64.266 207.602,64.266C205.27,64.266 202.977,64.809 200.891,65.848L158.879,86.855C163.039,54.824 190.5,30 223.652,30ZM128.332,192.801L111.199,192.801C106.621,192.801 102.32,191.02 99.086,187.777C95.848,184.543 94.066,180.242 94.066,175.668L94.066,143.535C94.066,138.961 95.848,134.656 99.094,131.414C102.32,128.184 106.621,126.402 111.199,126.402L128.332,126.402L128.332,192.801ZM158.332,191.75L158.332,120.672L199.121,100.277C215.117,135.312 250.246,158.531 289.902,158.531L353.266,158.531L353.266,191.734C353.266,245.477 309.543,289.199 255.785,289.199C229.758,289.199 205.285,279.063 186.875,260.656C168.469,242.25 158.332,217.781 158.332,191.75ZM255.801,319.199C267.281,319.199 278.41,317.664 289,314.805L289,336.332C289,354.641 274.105,369.531 255.801,369.531C237.492,369.531 222.602,354.641 222.602,336.332L222.602,314.852C233.293,317.715 244.43,319.199 255.801,319.199ZM78.789,482C84.57,427.5 121.543,380.832 174.426,363.199C182.473,360.52 189.773,358.086 195.777,356.086C204.094,381.285 227.848,399.531 255.801,399.531C283.75,399.531 307.508,381.285 315.82,356.086C321.824,358.086 329.129,360.52 337.172,363.199C390.055,380.828 427.027,427.496 432.809,482L78.789,482Z" style="fill:rgb(91,95,108);fill-opacity:0.6;fill-rule:nonzero;"/>
    </g>
</svg>
