<svg width="100" height="94" viewBox="0 0 100 94" fill="none" xmlns="http://www.w3.org/2000/svg">
<path d="M40.6247 21.218C38.04 21.218 35.937 19.115 35.937 16.5303C35.937 13.9457 38.04 11.8427 40.6247 11.8427C43.2093 11.8427 45.3123 13.9457 45.3123 16.5303C45.3123 19.115 43.2095 21.218 40.6247 21.218Z" fill="#5B5F6C" fill-opacity="0.6"/>
<path d="M99.9004 82.7773L92.283 31.9953C91.6189 27.5612 87.8821 24.3428 83.3974 24.3428H54.3821C56.9352 19.5126 56.8905 13.8304 54.2203 8.98867C51.5207 4.09304 46.625 1.07382 41.1235 0.911902C40.7942 0.902331 40.4559 0.902331 40.1245 0.911902C34.6241 1.07362 29.7285 4.09304 27.0288 8.98867C24.3598 13.8284 24.3141 19.5081 26.8675 24.3428H16.6026C12.1179 24.3428 8.38108 27.5612 7.71701 31.9945L0.0996245 82.7773C-0.288471 85.3664 0.468775 87.9891 2.17722 89.9728C3.88585 91.9566 6.36717 93.0943 8.9852 93.0943H91.0146C93.6327 93.0943 96.114 91.9566 97.8226 89.9728C99.5312 87.9895 100.288 85.3668 99.9004 82.7773ZM32.5022 12.0071C34.1474 9.02402 36.9926 7.25718 40.3075 7.15972C40.4122 7.15659 40.5184 7.15522 40.6249 7.15522C40.7313 7.15522 40.8376 7.15679 40.9411 7.15972C44.2572 7.25718 47.1024 9.02402 48.7475 12.0071C50.4659 15.1232 50.4183 18.8022 48.6204 21.8495L40.6249 35.3108L32.6317 21.8535C30.8315 18.8053 30.783 15.1244 32.5022 12.0071ZM93.0869 85.8945C92.7815 86.2492 92.1059 86.8446 91.0148 86.8446H34.397C34.5429 85.3797 35.2208 83.1782 37.7844 81.7716C39.2975 80.9413 39.851 79.0416 39.0207 77.5285C38.1904 76.0154 36.2904 75.4618 34.7775 76.2921C31.4678 78.1082 29.2859 80.9596 28.4677 84.5377C28.2765 85.3734 28.1841 86.1568 28.1468 86.8446H8.9852C7.89416 86.8446 7.21856 86.2492 6.91308 85.8945C6.6076 85.5396 6.11911 84.7834 6.28084 83.7046L13.8982 32.9215C14.1004 31.5724 15.2377 30.5933 16.6028 30.5933H30.5533L36.6172 40.8028C37.4664 42.237 38.9645 43.0932 40.6249 43.0932C42.2853 43.0932 43.7834 42.237 44.6301 40.8067L50.6964 30.5933H83.3976C84.7625 30.5933 85.9 31.5724 86.1022 32.9221L93.7196 83.7044C93.8809 84.7832 93.3926 85.5396 93.0869 85.8945Z" fill="#5B5F6C" fill-opacity="0.6"/>
<path d="M54.1133 40.1288C52.4755 39.5825 50.7062 40.4681 50.1604 42.1052C49.6145 43.7426 50.4995 45.5123 52.1369 46.0581C52.1689 46.0688 55.3713 47.2138 56.4106 50.3318C56.8469 51.6414 58.0665 52.4696 59.3749 52.4696C59.7025 52.4696 60.0359 52.4176 60.3636 52.3082C62.001 51.7625 62.8859 49.9927 62.34 48.3554C60.3066 42.2556 54.3652 40.2128 54.1133 40.1288Z" fill="#5B5F6C" fill-opacity="0.6"/>
<path d="M56.7633 59.8116C55.1356 59.2372 53.3506 60.0909 52.7763 61.7185C51.0126 66.7157 44.9671 68.8622 44.8402 68.9063C43.2095 69.4562 42.3296 71.2218 42.8745 72.8557C43.3108 74.1653 44.5304 74.9934 45.8388 74.9934C46.1664 74.9934 46.4998 74.9414 46.8275 74.8321C47.1953 74.7096 55.8682 71.738 58.6704 63.7986C59.2446 62.171 58.3909 60.386 56.7633 59.8116Z" fill="#5B5F6C" fill-opacity="0.6"/>
</svg>
