<svg width="48" height="48" viewBox="0 0 48 48" fill="none" xmlns="http://www.w3.org/2000/svg">
<path d="M24.0003 17.135C22.808 17.135 21.9602 17.6384 21.9602 18.3803V28.4746C21.9602 29.1105 22.8081 29.7464 24.0003 29.7464C25.1396 29.7464 26.0668 29.1105 26.0668 28.4746V18.3803C26.0668 17.6384 25.1396 17.135 24.0003 17.135Z" fill="#5A5E6A" fill-opacity="0.5"/>
<path d="M24.0002 10.9089C22.7815 10.9089 21.8276 11.7832 21.8276 12.79C21.8276 13.7968 22.7815 14.6977 24.0002 14.6977C25.1925 14.6977 26.1463 13.7968 26.1463 12.79C26.1463 11.7833 25.1924 10.9089 24.0002 10.9089Z" fill="#5A5E6A" fill-opacity="0.5"/>
<path d="M24 0C12.5998 0 3.375 9.22013 3.375 20.6131C3.375 29.916 9.49997 37.6405 17.7578 40.2639L22.4483 47.1777C22.7973 47.692 23.3784 48 24 48C24.6216 48 25.2027 47.692 25.5517 47.1777L30.2422 40.2639C38.5037 37.6393 44.625 29.912 44.625 20.6131C44.625 9.21291 35.3928 0 24 0ZM28.5605 36.853C28.1334 36.9725 27.7627 37.2393 27.5138 37.6061L24 42.7853L20.4863 37.6062C20.2373 37.2394 19.8666 36.9725 19.4395 36.8531C12.4103 34.8877 7.125 28.4232 7.125 20.6131C7.125 11.3147 14.6951 3.75 24 3.75C33.3049 3.75 40.875 11.3147 40.875 20.6131C40.875 28.431 35.5819 34.8898 28.5605 36.853Z" fill="#5A5E6A" fill-opacity="0.5"/>
</svg>
